MutatorSansInstance_1000-300.ufo
<glyph name="comma" format="2">
  <advance width="268"/>
  <unicode hex="002C"/>
  <outline>
    <contour>
      <point x="229" y="0" type="line"/>
      <point x="229" y="300" type="line"/>
      <point x="39" y="300" type="line"/>
      <point x="39" y="0" type="line"/>
      <point x="118" y="-16" type="line"/>
      <point x="110" y="12" type="line"/>
      <point x="88" y="-143" type="line"/>
      <point x="160" y="-145" type="line"/>
    </contour>
  </outline>
</glyph>
<glyph name="period" format="2">
  <advance width="268"/>
  <unicode hex="002E"/>
  <outline>
    <contour>
      <point x="39" y="0" type="line"/>
      <point x="229" y="0" type="line"/>
      <point x="229" y="300" type="line"/>
      <point x="39" y="300" type="line"/>
    </contour>
  </outline>
</glyph>
<glyph name="A" format="2">
  <advance width="905"/>
  <unicode hex="0041"/>
  <outline>
    <contour>
      <point x="13" y="0" type="line"/>
      <point x="280" y="0" type="line"/>
      <point x="426" y="800" type="line"/>
      <point x="195" y="800" type="line"/>
    </contour>
    <contour>
      <point x="140" y="120" type="line"/>
      <point x="688" y="120" type="line"/>
      <point x="688" y="333" type="line"/>
      <point x="140" y="333" type="line"/>
    </contour>
    <contour>
      <point x="513" y="0" type="line"/>
      <point x="892" y="0" type="line"/>
      <point x="709" y="800" type="line"/>
      <point x="350" y="800" type="line"/>
    </contour>
    <contour>
      <point x="266" y="540" type="line"/>
      <point x="581" y="540" type="line"/>
      <point x="581" y="800" type="line"/>
      <point x="266" y="800" type="line"/>
    </contour>
  </outline>
</glyph>
<glyph name="B" format="2">
  <advance width="887"/>
  <unicode hex="0042"/>
  <outline>
    <contour>
      <point x="39" y="0" type="line"/>
      <point x="382" y="0" type="line"/>
      <point x="382" y="800" type="line"/>
      <point x="39" y="800" type="line"/>
    </contour>
    <contour>
      <point x="331" y="344" type="line"/>
      <point x="476" y="344" type="line" smooth="yes"/>
      <point x="509" y="344"/>
      <point x="535" y="337"/>
      <point x="535" y="290" type="curve" smooth="yes"/>
      <point x="535" y="249"/>
      <point x="509" y="238"/>
      <point x="476" y="238" type="curve" smooth="yes"/>
      <point x="331" y="238" type="line"/>
      <point x="331" y="0" type="line"/>
      <point x="564" y="0" type="line" smooth="yes"/>
      <point x="819" y="0"/>
      <point x="874" y="94"/>
      <point x="874" y="230" type="curve" smooth="yes"/>
      <point x="874" y="356"/>
      <point x="813" y="417"/>
      <point x="719" y="434" type="curve"/>
      <point x="703" y="377" type="line"/>
      <point x="780" y="392"/>
      <point x="858" y="444"/>
      <point x="858" y="563" type="curve" smooth="yes"/>
      <point x="858" y="711"/>
      <point x="783" y="800"/>
      <point x="538" y="800" type="curve" smooth="yes"/>
      <point x="331" y="800" type="line"/>
      <point x="331" y="574" type="line"/>
      <point x="464" y="574" type="line" smooth="yes"/>
      <point x="500" y="574"/>
      <point x="526" y="564"/>
      <point x="526" y="524" type="curve" smooth="yes"/>
      <point x="526" y="475"/>
      <point x="500" y="473"/>
      <point x="464" y="473" type="curve" smooth="yes"/>
      <point x="331" y="473" type="line"/>
    </contour>
  </outline>
</glyph>
<glyph name="C" format="2">
  <advance width="988"/>
  <unicode hex="0043"/>
  <outline>
    <contour>
      <point x="630" y="373" type="line"/>
      <point x="624" y="285"/>
      <point x="589" y="254"/>
      <point x="520" y="254" type="curve" smooth="yes"/>
      <point x="486" y="254" type="line" smooth="yes"/>
      <point x="415" y="254"/>
      <point x="381" y="298"/>
      <point x="381" y="403" type="curve" smooth="yes"/>
      <point x="381" y="504"/>
      <point x="415" y="546"/>
      <point x="486" y="546" type="curve" smooth="yes"/>
      <point x="520" y="546" type="line" smooth="yes"/>
      <point x="589" y="546"/>
      <point x="624" y="517"/>
      <point x="630" y="433" type="curve"/>
      <point x="961" y="467" type="line"/>
      <point x="935" y="699"/>
      <point x="778" y="810"/>
      <point x="541" y="810" type="curve" smooth="yes"/>
      <point x="463" y="810" type="line" smooth="yes"/>
      <point x="195" y="810"/>
      <point x="26" y="679"/>
      <point x="26" y="403" type="curve" smooth="yes"/>
      <point x="26" y="124"/>
      <point x="195" y="-10"/>
      <point x="463" y="-10" type="curve" smooth="yes"/>
      <point x="541" y="-10" type="line" smooth="yes"/>
      <point x="779" y="-10"/>
      <point x="937" y="104"/>
      <point x="962" y="341" type="curve"/>
    </contour>
  </outline>
</glyph>
<glyph name="D" format="2">
  <advance width="900"/>
  <unicode hex="0044"/>
  <outline>
    <contour>
      <point x="39" y="0" type="line"/>
      <point x="367" y="0" type="line"/>
      <point x="367" y="800" type="line"/>
      <point x="39" y="800" type="line"/>
    </contour>
    <contour>
      <point x="313" y="546" type="line"/>
      <point x="415" y="546" type="line" smooth="yes"/>
      <point x="486" y="546"/>
      <point x="520" y="504"/>
      <point x="520" y="403" type="curve" smooth="yes"/>
      <point x="520" y="298"/>
      <point x="486" y="254"/>
      <point x="415" y="254" type="curve" smooth="yes"/>
      <point x="308" y="254" type="line"/>
      <point x="308" y="0" type="line"/>
      <point x="436" y="0" type="line" smooth="yes"/>
      <point x="705" y="0"/>
      <point x="874" y="129"/>
      <point x="874" y="403" type="curve" smooth="yes"/>
      <point x="874" y="674"/>
      <point x="705" y="800"/>
      <point x="436" y="800" type="curve" smooth="yes"/>
      <point x="313" y="800" type="line"/>
    </contour>
  </outline>
</glyph>
<glyph name="E" format="2">
  <advance width="783"/>
  <unicode hex="0045"/>
  <anchor x="393" y="841" name="top"/>
  <outline>
    <contour>
      <point x="46" y="0" type="line"/>
      <point x="375" y="0" type="line"/>
      <point x="375" y="800" type="line"/>
      <point x="46" y="800" type="line"/>
    </contour>
    <contour>
      <point x="136" y="530" type="line"/>
      <point x="744" y="530" type="line"/>
      <point x="744" y="800" type="line"/>
      <point x="136" y="800" type="line"/>
    </contour>
    <contour>
      <point x="136" y="0" type="line"/>
      <point x="744" y="0" type="line"/>
      <point x="744" y="270" type="line"/>
      <point x="136" y="270" type="line"/>
    </contour>
    <contour>
      <point x="136" y="315" type="line"/>
      <point x="656" y="315" type="line"/>
      <point x="656" y="485" type="line"/>
      <point x="136" y="485" type="line"/>
    </contour>
  </outline>
</glyph>
<glyph name="F" format="2">
  <advance width="755"/>
  <unicode hex="0046"/>
  <outline>
    <contour>
      <point x="39" y="0" type="line"/>
      <point x="389" y="0" type="line"/>
      <point x="389" y="800" type="line"/>
      <point x="39" y="800" type="line"/>
    </contour>
    <contour>
      <point x="136" y="544" type="line"/>
      <point x="716" y="544" type="line"/>
      <point x="716" y="800" type="line"/>
      <point x="136" y="800" type="line"/>
    </contour>
    <contour>
      <point x="136" y="263" type="line"/>
      <point x="672" y="263" type="line"/>
      <point x="672" y="479" type="line"/>
      <point x="136" y="479" type="line"/>
    </contour>
  </outline>
</glyph>
<glyph name="G" format="2">
  <advance width="1004"/>
  <unicode hex="0047"/>
  <outline>
    <contour>
      <point x="486" y="308" type="line"/>
      <point x="683" y="308" type="line"/>
      <point x="683" y="216" type="line"/>
      <point x="813" y="0" type="line"/>
      <point x="965" y="0" type="line"/>
      <point x="965" y="413" type="line"/>
      <point x="486" y="413" type="line"/>
    </contour>
    <contour>
      <point x="644" y="376" type="line"/>
      <point x="638" y="288"/>
      <point x="599" y="254"/>
      <point x="520" y="254" type="curve" smooth="yes"/>
      <point x="486" y="254" type="line" smooth="yes"/>
      <point x="415" y="254"/>
      <point x="381" y="298"/>
      <point x="381" y="403" type="curve" smooth="yes"/>
      <point x="381" y="504"/>
      <point x="418" y="546"/>
      <point x="496" y="546" type="curve" smooth="yes"/>
      <point x="530" y="546" type="line" smooth="yes"/>
      <point x="602" y="546"/>
      <point x="638" y="517"/>
      <point x="644" y="433" type="curve"/>
      <point x="954" y="467" type="line"/>
      <point x="928" y="699"/>
      <point x="775" y="810"/>
      <point x="541" y="810" type="curve" smooth="yes"/>
      <point x="463" y="810" type="line" smooth="yes"/>
      <point x="195" y="810"/>
      <point x="26" y="679"/>
      <point x="26" y="403" type="curve" smooth="yes"/>
      <point x="26" y="124"/>
      <point x="195" y="-10"/>
      <point x="463" y="-10" type="curve" smooth="yes"/>
      <point x="487" y="-10" type="line" smooth="yes"/>
      <point x="722" y="-10"/>
      <point x="876" y="107"/>
      <point x="901" y="344" type="curve"/>
    </contour>
  </outline>
</glyph>
<glyph name="H" format="2">
  <advance width="933"/>
  <unicode hex="0048"/>
  <outline>
    <contour>
      <point x="39" y="0" type="line"/>
      <point x="389" y="0" type="line"/>
      <point x="389" y="800" type="line"/>
      <point x="39" y="800" type="line"/>
    </contour>
    <contour>
      <point x="167" y="263" type="line"/>
      <point x="766" y="263" type="line"/>
      <point x="766" y="523" type="line"/>
      <point x="167" y="523" type="line"/>
    </contour>
    <contour>
      <point x="544" y="0" type="line"/>
      <point x="894" y="0" type="line"/>
      <point x="894" y="800" type="line"/>
      <point x="544" y="800" type="line"/>
    </contour>
  </outline>
</glyph>
<glyph name="I" format="2">
  <advance width="698"/>
  <unicode hex="0049"/>
  <outline>
    <contour>
      <point x="174" y="0" type="line"/>
      <point x="524" y="0" type="line"/>
      <point x="524" y="800" type="line"/>
      <point x="174" y="800" type="line"/>
    </contour>
    <contour>
      <point x="39" y="523" type="line"/>
      <point x="659" y="523" type="line"/>
      <point x="659" y="800" type="line"/>
      <point x="39" y="800" type="line"/>
    </contour>
    <contour>
      <point x="39" y="0" type="line"/>
      <point x="659" y="0" type="line"/>
      <point x="659" y="277" type="line"/>
      <point x="39" y="277" type="line"/>
    </contour>
  </outline>
</glyph>
<glyph name="J" format="2">
  <advance width="727"/>
  <unicode hex="004A"/>
  <outline>
    <contour>
      <point x="226" y="-10" type="curve" smooth="yes"/>
      <point x="513" y="-10"/>
      <point x="688" y="114"/>
      <point x="688" y="370" type="curve" smooth="yes"/>
      <point x="688" y="800" type="line"/>
      <point x="334" y="800" type="line"/>
      <point x="334" y="425" type="line" smooth="yes"/>
      <point x="334" y="321"/>
      <point x="287" y="277"/>
      <point x="201" y="277" type="curve" smooth="yes"/>
      <point x="168" y="277"/>
      <point x="129" y="279"/>
      <point x="87" y="289" type="curve"/>
      <point x="39" y="14" type="line"/>
      <point x="94" y="-2"/>
      <point x="156" y="-10"/>
    </contour>
  </outline>
</glyph>
<glyph name="K" format="2">
  <advance width="970"/>
  <unicode hex="004B"/>
  <outline>
    <contour>
      <point x="39" y="0" type="line"/>
      <point x="389" y="0" type="line"/>
      <point x="389" y="800" type="line"/>
      <point x="39" y="800" type="line"/>
    </contour>
    <contour>
      <point x="324" y="312" type="line"/>
      <point x="400" y="312" type="line"/>
      <point x="548" y="0" type="line"/>
      <point x="956" y="0" type="line"/>
      <point x="702" y="533" type="line"/>
      <point x="410" y="452" type="line"/>
      <point x="324" y="452" type="line"/>
    </contour>
    <contour>
      <point x="395" y="426" type="line"/>
      <point x="631" y="318" type="line"/>
      <point x="948" y="800" type="line"/>
      <point x="571" y="800" type="line"/>
    </contour>
  </outline>
</glyph>
<glyph name="L" format="2">
  <advance width="706"/>
  <unicode hex="004C"/>
  <outline>
    <contour>
      <point x="39" y="0" type="line"/>
      <point x="389" y="0" type="line"/>
      <point x="389" y="800" type="line"/>
      <point x="39" y="800" type="line"/>
    </contour>
    <contour>
      <point x="136" y="0" type="line"/>
      <point x="686" y="0" type="line"/>
      <point x="686" y="259" type="line"/>
      <point x="136" y="259" type="line"/>
    </contour>
  </outline>
</glyph>
<glyph name="M" format="2">
  <advance width="972"/>
  <unicode hex="004D"/>
  <outline>
    <contour>
      <point x="39" y="0" type="line"/>
      <point x="310" y="0" type="line"/>
      <point x="310" y="800" type="line"/>
      <point x="39" y="800" type="line"/>
    </contour>
    <contour>
      <point x="933" y="0" type="line"/>
      <point x="933" y="800" type="line"/>
      <point x="662" y="800" type="line"/>
      <point x="662" y="0" type="line"/>
    </contour>
    <contour>
      <point x="792" y="422" type="line"/>
      <point x="662" y="800" type="line"/>
      <point x="469" y="550" type="line"/>
      <point x="502" y="550" type="line"/>
      <point x="310" y="800" type="line"/>
      <point x="180" y="422" type="line"/>
      <point x="436" y="123" type="line"/>
      <point x="535" y="123" type="line"/>
    </contour>
  </outline>
</glyph>
<glyph name="N" format="2">
  <advance width="926"/>
  <unicode hex="004E"/>
  <outline>
    <contour>
      <point x="39" y="0" type="line"/>
      <point x="310" y="0" type="line"/>
      <point x="310" y="800" type="line"/>
      <point x="39" y="800" type="line"/>
    </contour>
    <contour>
      <point x="149" y="500" type="line"/>
      <point x="615" y="0" type="line"/>
      <point x="776" y="300" type="line"/>
      <point x="310" y="800" type="line"/>
    </contour>
    <contour>
      <point x="616" y="0" type="line"/>
      <point x="886" y="0" type="line"/>
      <point x="886" y="800" type="line"/>
      <point x="616" y="800" type="line"/>
    </contour>
  </outline>
</glyph>
<glyph name="O" format="2">
  <advance width="1005"/>
  <unicode hex="004F"/>
  <outline>
    <contour>
      <point x="463" y="-10" type="curve" smooth="yes"/>
      <point x="541" y="-10" type="line" smooth="yes"/>
      <point x="810" y="-10"/>
      <point x="979" y="124"/>
      <point x="979" y="403" type="curve" smooth="yes"/>
      <point x="979" y="679"/>
      <point x="810" y="810"/>
      <point x="541" y="810" type="curve" smooth="yes"/>
      <point x="463" y="810" type="line" smooth="yes"/>
      <point x="195" y="810"/>
      <point x="26" y="679"/>
      <point x="26" y="403" type="curve" smooth="yes"/>
      <point x="26" y="124"/>
      <point x="195" y="-10"/>
    </contour>
    <contour>
      <point x="486" y="254" type="line" smooth="yes"/>
      <point x="415" y="254"/>
      <point x="381" y="298"/>
      <point x="381" y="403" type="curve" smooth="yes"/>
      <point x="381" y="504"/>
      <point x="415" y="546"/>
      <point x="486" y="546" type="curve" smooth="yes"/>
      <point x="520" y="546" type="line" smooth="yes"/>
      <point x="591" y="546"/>
      <point x="624" y="504"/>
      <point x="624" y="403" type="curve" smooth="yes"/>
      <point x="624" y="298"/>
      <point x="591" y="254"/>
      <point x="520" y="254" type="curve" smooth="yes"/>
    </contour>
  </outline>
</glyph>
<glyph name="P" format="2">
  <advance width="862"/>
  <unicode hex="0050"/>
  <outline>
    <contour>
      <point x="39" y="0" type="line"/>
      <point x="389" y="0" type="line"/>
      <point x="389" y="800" type="line"/>
      <point x="39" y="800" type="line"/>
    </contour>
    <contour>
      <point x="289" y="538" type="line"/>
      <point x="467" y="538" type="line" smooth="yes"/>
      <point x="506" y="538"/>
      <point x="523" y="525"/>
      <point x="523" y="477" type="curve" smooth="yes"/>
      <point x="523" y="423"/>
      <point x="506" y="415"/>
      <point x="467" y="415" type="curve" smooth="yes"/>
      <point x="289" y="415" type="line"/>
      <point x="289" y="152" type="line"/>
      <point x="472" y="152" type="line" smooth="yes"/>
      <point x="749" y="152"/>
      <point x="842" y="258"/>
      <point x="842" y="477" type="curve" smooth="yes"/>
      <point x="842" y="694"/>
      <point x="749" y="800"/>
      <point x="474" y="800" type="curve" smooth="yes"/>
      <point x="289" y="800" type="line"/>
    </contour>
  </outline>
</glyph>
<glyph name="Q" format="2">
  <advance width="1005"/>
  <unicode hex="0051"/>
  <outline>
    <contour>
      <point x="455" y="-130" type="line"/>
      <point x="798" y="-130" type="line"/>
      <point x="679" y="170" type="line"/>
      <point x="355" y="170" type="line"/>
    </contour>
    <component base="O"/>
  </outline>
</glyph>
<glyph name="R" format="2">
  <advance width="869"/>
  <unicode hex="0052"/>
  <outline>
    <contour>
      <point x="494" y="0" type="line"/>
      <point x="848" y="0" type="line"/>
      <point x="809" y="173" type="line" smooth="yes"/>
      <point x="790" y="232"/>
      <point x="747" y="276"/>
      <point x="670" y="276" type="curve"/>
      <point x="448" y="276" type="line"/>
    </contour>
    <contour>
      <point x="39" y="0" type="line"/>
      <point x="389" y="0" type="line"/>
      <point x="389" y="800" type="line"/>
      <point x="39" y="800" type="line"/>
    </contour>
    <contour>
      <point x="289" y="538" type="line"/>
      <point x="474" y="538" type="line" smooth="yes"/>
      <point x="513" y="538"/>
      <point x="530" y="526"/>
      <point x="530" y="477" type="curve" smooth="yes"/>
      <point x="530" y="423"/>
      <point x="513" y="415"/>
      <point x="474" y="415" type="curve" smooth="yes"/>
      <point x="289" y="415" type="line"/>
      <point x="289" y="212" type="line"/>
      <point x="486" y="212" type="line" smooth="yes"/>
      <point x="749" y="212"/>
      <point x="849" y="308"/>
      <point x="849" y="507" type="curve" smooth="yes"/>
      <point x="849" y="705"/>
      <point x="742" y="800"/>
      <point x="479" y="800" type="curve" smooth="yes"/>
      <point x="289" y="800" type="line"/>
    </contour>
  </outline>
</glyph>
<glyph name="S" format="2">
  <advance width="858"/>
  <unicode hex="0053"/>
  <outline>
    <contour>
      <point x="835" y="253" type="curve" smooth="yes"/>
      <point x="835" y="462"/>
      <point x="720" y="521"/>
      <point x="515" y="531" type="curve" smooth="yes"/>
      <point x="417" y="535" type="line" smooth="yes"/>
      <point x="324" y="540"/>
      <point x="316" y="542"/>
      <point x="316" y="552" type="curve" smooth="yes"/>
      <point x="316" y="563"/>
      <point x="332" y="567"/>
      <point x="394" y="567" type="curve" smooth="yes"/>
      <point x="491" y="567" type="line" smooth="yes"/>
      <point x="593" y="567"/>
      <point x="694" y="558"/>
      <point x="769" y="548" type="curve"/>
      <point x="804" y="780" type="line"/>
      <point x="728" y="794"/>
      <point x="598" y="810"/>
      <point x="529" y="810" type="curve" smooth="yes"/>
      <point x="459" y="810" type="line" smooth="yes"/>
      <point x="163" y="810"/>
      <point x="32" y="712"/>
      <point x="32" y="529" type="curve" smooth="yes"/>
      <point x="32" y="343"/>
      <point x="164" y="280"/>
      <point x="353" y="269" type="curve" smooth="yes"/>
      <point x="446" y="264" type="line" smooth="yes"/>
      <point x="530" y="258"/>
      <point x="546" y="259"/>
      <point x="546" y="246" type="curve" smooth="yes"/>
      <point x="546" y="238"/>
      <point x="529" y="234"/>
      <point x="468" y="234" type="curve" smooth="yes"/>
      <point x="374" y="234" type="line" smooth="yes"/>
      <point x="256" y="234"/>
      <point x="145" y="242"/>
      <point x="60" y="255" type="curve"/>
      <point x="25" y="20" type="line"/>
      <point x="112" y="5"/>
      <point x="257" y="-10"/>
      <point x="338" y="-10" type="curve" smooth="yes"/>
      <point x="413" y="-10" type="line" smooth="yes"/>
      <point x="744" y="-10"/>
      <point x="835" y="105"/>
    </contour>
  </outline>
</glyph>
<glyph name="T" format="2">
  <advance width="812"/>
  <unicode hex="0054"/>
  <outline>
    <contour>
      <point x="231" y="0" type="line"/>
      <point x="581" y="0" type="line"/>
      <point x="581" y="800" type="line"/>
      <point x="231" y="800" type="line"/>
    </contour>
    <contour>
      <point x="20" y="532" type="line"/>
      <point x="792" y="532" type="line"/>
      <point x="792" y="800" type="line"/>
      <point x="20" y="800" type="line"/>
    </contour>
  </outline>
</glyph>
<glyph name="U" format="2">
  <advance width="927"/>
  <unicode hex="0055"/>
  <outline>
    <contour>
      <point x="463" y="-10" type="curve" smooth="yes"/>
      <point x="744" y="-10"/>
      <point x="879" y="114"/>
      <point x="879" y="370" type="curve" smooth="yes"/>
      <point x="879" y="800" type="line"/>
      <point x="526" y="800" type="line"/>
      <point x="526" y="335" type="line" smooth="yes"/>
      <point x="526" y="284"/>
      <point x="505" y="263"/>
      <point x="463" y="263" type="curve" smooth="yes"/>
      <point x="423" y="263"/>
      <point x="402" y="284"/>
      <point x="402" y="335" type="curve" smooth="yes"/>
      <point x="402" y="800" type="line"/>
      <point x="48" y="800" type="line"/>
      <point x="48" y="370" type="line" smooth="yes"/>
      <point x="48" y="114"/>
      <point x="181" y="-10"/>
    </contour>
  </outline>
</glyph>
<glyph name="V" format="2">
  <advance width="914"/>
  <unicode hex="0056"/>
  <outline>
    <contour>
      <point x="901" y="800" type="line"/>
      <point x="627" y="800" type="line"/>
      <point x="469" y="0" type="line"/>
      <point x="707" y="0" type="line"/>
    </contour>
    <contour>
      <point x="392" y="800" type="line"/>
      <point x="13" y="800" type="line"/>
      <point x="205" y="0" type="line"/>
      <point x="564" y="0" type="line"/>
    </contour>
    <contour>
      <point x="642" y="260" type="line"/>
      <point x="327" y="260" type="line"/>
      <point x="327" y="0" type="line"/>
      <point x="642" y="0" type="line"/>
    </contour>
  </outline>
</glyph>
<glyph name="W" format="2">
  <advance width="1032"/>
  <unicode hex="0057"/>
  <outline>
    <contour>
      <point x="1019" y="800" type="line"/>
      <point x="723" y="800" type="line"/>
      <point x="667" y="270" type="line"/>
      <point x="704" y="270" type="line"/>
      <point x="646" y="800" type="line"/>
      <point x="420" y="800" type="line"/>
      <point x="368" y="270" type="line"/>
      <point x="405" y="270" type="line"/>
      <point x="345" y="800" type="line"/>
      <point x="13" y="800" type="line"/>
      <point x="131" y="0" type="line"/>
      <point x="465" y="0" type="line"/>
      <point x="519" y="427" type="line"/>
      <point x="470" y="427" type="line"/>
      <point x="536" y="0" type="line"/>
      <point x="904" y="0" type="line"/>
    </contour>
  </outline>
</glyph>
<glyph name="X" format="2">
  <advance width="909"/>
  <unicode hex="0058"/>
  <outline>
    <contour>
      <point x="483" y="0" type="line"/>
      <point x="896" y="0" type="line"/>
      <point x="593" y="475" type="line"/>
      <point x="426" y="800" type="line"/>
      <point x="13" y="800" type="line"/>
      <point x="308" y="357" type="line"/>
    </contour>
    <contour>
      <point x="13" y="0" type="line"/>
      <point x="309" y="0" type="line"/>
      <point x="429" y="315" type="line"/>
      <point x="630" y="338" type="line"/>
      <point x="896" y="800" type="line"/>
      <point x="600" y="800" type="line"/>
      <point x="471" y="523" type="line"/>
      <point x="271" y="488" type="line"/>
    </contour>
  </outline>
</glyph>
<glyph name="Y" format="2">
  <advance width="881"/>
  <unicode hex="0059"/>
  <outline>
    <contour>
      <point x="868" y="800" type="line"/>
      <point x="602" y="800" type="line"/>
      <point x="392" y="203" type="line"/>
      <point x="616" y="203" type="line"/>
    </contour>
    <contour>
      <point x="386" y="800" type="line"/>
      <point x="13" y="800" type="line"/>
      <point x="266" y="203" type="line"/>
      <point x="586" y="203" type="line"/>
    </contour>
    <contour>
      <point x="616" y="303" type="line"/>
      <point x="266" y="303" type="line"/>
      <point x="266" y="0" type="line"/>
      <point x="616" y="0" type="line"/>
    </contour>
  </outline>
</glyph>
<glyph name="Z" format="2">
  <advance width="832"/>
  <unicode hex="005A"/>
  <outline>
    <contour>
      <point x="39" y="259" type="line"/>
      <point x="440" y="215" type="line"/>
      <point x="793" y="541" type="line"/>
      <point x="392" y="585" type="line"/>
    </contour>
    <contour>
      <point x="39" y="541" type="line"/>
      <point x="793" y="541" type="line"/>
      <point x="793" y="800" type="line"/>
      <point x="39" y="800" type="line"/>
    </contour>
    <contour>
      <point x="39" y="0" type="line"/>
      <point x="793" y="0" type="line"/>
      <point x="793" y="259" type="line"/>
      <point x="39" y="259" type="line"/>
    </contour>
  </outline>
</glyph>
